<svg xmlns="http://www.w3.org/2000/svg" xmlns:xlink="http://www.w3.org/1999/xlink" width="375" zoomAndPan="magnify" viewBox="0 0 281.25 135.000003" height="180" preserveAspectRatio="xMidYMid meet" version="1.0"><defs><clipPath id="09d5f5a4d9"><path d="M 7.316406 42.90625 L 77 42.90625 L 77 100.65625 L 7.316406 100.65625 Z M 7.316406 42.90625 " clip-rule="nonzero"/></clipPath><clipPath id="d41294703f"><path d="M 51.515625 42.90625 L 77 50.097656 L 77 69.964844 L 54.847656 80.332031 L 12.421875 67.230469 L 12.421875 78.222656 L 54.621094 92.769531 L 77 82.605469 L 77 90.152344 L 53.957031 100.65625 L 7.316406 83.441406 L 7.316406 63.117188 L 51.515625 42.90625 " clip-rule="nonzero"/></clipPath><linearGradient x1="-0.575279" gradientTransform="matrix(0, -34.123247, 34.123239, 0, 42.156829, 81.026703)" y1="0" x2="1.117119" gradientUnits="userSpaceOnUse" y2="0" id="c7abaaf979"><stop stop-opacity="1" stop-color="rgb(0%, 47.799683%, 72.499084%)" offset="0"/><stop stop-opacity="1" stop-color="rgb(0%, 47.799683%, 72.499084%)" offset="0.25"/><stop stop-opacity="1" stop-color="rgb(0%, 47.799683%, 72.499084%)" offset="0.3125"/><stop stop-opacity="1" stop-color="rgb(0%, 47.799683%, 72.499084%)" offset="0.34375"/><stop stop-opacity="1" stop-color="rgb(0%, 47.793579%, 72.348022%)" offset="0.359375"/><stop stop-opacity="1" stop-color="rgb(0%, 47.642517%, 72.195435%)" offset="0.367187"/><stop stop-opacity="1" stop-color="rgb(0%, 47.499084%, 71.998596%)" offset="0.375"/><stop stop-opacity="1" stop-color="rgb(0%, 47.305298%, 71.800232%)" offset="0.382812"/><stop stop-opacity="1" stop-color="rgb(0%, 47.105408%, 71.609497%)" offset="0.390625"/><stop stop-opacity="1" stop-color="rgb(0%, 46.899414%, 71.209717%)" offset="0.394531"/><stop stop-opacity="1" stop-color="rgb(0%, 46.699524%, 70.999146%)" offset="0.398437"/><stop stop-opacity="1" stop-color="rgb(0%, 46.699524%, 70.999146%)" offset="0.40625"/><stop stop-opacity="1" stop-color="rgb(0%, 46.699524%, 70.999146%)" offset="0.421875"/><stop stop-opacity="1" stop-color="rgb(0%, 46.508789%, 70.808411%)" offset="0.429687"/><stop stop-opacity="1" stop-color="rgb(0%, 46.136475%, 70.236206%)" offset="0.433594"/><stop stop-opacity="1" stop-color="rgb(0%, 45.954895%, 69.854736%)" offset="0.4375"/><stop stop-opacity="1" stop-color="rgb(0%, 45.927429%, 69.819641%)" offset="0.445312"/><stop stop-opacity="1" stop-color="rgb(0%, 45.898438%, 69.590759%)" offset="0.453125"/><stop stop-opacity="1" stop-color="rgb(0%, 45.701599%, 69.20166%)" offset="0.46875"/><stop stop-opacity="1" stop-color="rgb(0%, 45.501709%, 69.00177%)" offset="0.476562"/><stop stop-opacity="1" stop-color="rgb(0%, 45.291138%, 68.798828%)" offset="0.480469"/><stop stop-opacity="1" stop-color="rgb(0%, 45.083618%, 68.598938%)" offset="0.484375"/><stop stop-opacity="1" stop-color="rgb(0%, 44.891357%, 68.595886%)" offset="0.492187"/><stop stop-opacity="1" stop-color="rgb(0%, 44.699097%, 68.397522%)" offset="0.5"/><stop stop-opacity="1" stop-color="rgb(0%, 44.60144%, 68.103027%)" offset="0.507812"/><stop stop-opacity="1" stop-color="rgb(0%, 44.407654%, 67.907715%)" offset="0.515625"/><stop stop-opacity="1" stop-color="rgb(0%, 44.294739%, 67.796326%)" offset="0.523438"/><stop stop-opacity="1" stop-color="rgb(0%, 44.088745%, 67.640686%)" offset="0.53125"/><stop stop-opacity="1" stop-color="rgb(0%, 43.899536%, 67.498779%)" offset="0.546875"/><stop stop-opacity="1" stop-color="rgb(0%, 43.707275%, 67.308044%)" offset="0.554688"/><stop stop-opacity="1" stop-color="rgb(0%, 43.507385%, 66.920471%)" offset="0.558594"/><stop stop-opacity="1" stop-color="rgb(0%, 43.499756%, 66.725159%)" offset="0.5625"/><stop stop-opacity="1" stop-color="rgb(0%, 43.299866%, 66.511536%)" offset="0.566406"/><stop stop-opacity="1" stop-color="rgb(0%, 43.099976%, 66.299438%)" offset="0.570313"/><stop stop-opacity="1" stop-color="rgb(0%, 43.099976%, 66.299438%)" offset="0.578125"/><stop stop-opacity="1" stop-color="rgb(0%, 42.906189%, 66.105652%)" offset="0.59375"/><stop stop-opacity="1" stop-color="rgb(0%, 42.704773%, 65.905762%)" offset="0.601563"/><stop stop-opacity="1" stop-color="rgb(0%, 42.692566%, 65.690613%)" offset="0.605469"/><stop stop-opacity="1" stop-color="rgb(0%, 42.686462%, 65.481567%)" offset="0.609375"/><stop stop-opacity="1" stop-color="rgb(0%, 42.54303%, 65.286255%)" offset="0.617188"/><stop stop-opacity="1" stop-color="rgb(0%, 42.399597%, 64.89563%)" offset="0.625"/><stop stop-opacity="1" stop-color="rgb(0%, 42.208862%, 64.509583%)" offset="0.640625"/><stop stop-opacity="1" stop-color="rgb(0%, 42.008972%, 64.297485%)" offset="0.648438"/><stop stop-opacity="1" stop-color="rgb(0%, 41.993713%, 64.08844%)" offset="0.65625"/><stop stop-opacity="1" stop-color="rgb(0%, 41.792297%, 63.897705%)" offset="0.664063"/><stop stop-opacity="1" stop-color="rgb(0%, 41.598511%, 63.700867%)" offset="0.671875"/><stop stop-opacity="1" stop-color="rgb(0%, 41.50238%, 63.406372%)" offset="0.679688"/><stop stop-opacity="1" stop-color="rgb(0%, 41.31012%, 63.209534%)" offset="0.6875"/><stop stop-opacity="1" stop-color="rgb(0%, 41.004944%, 63.098145%)" offset="0.691406"/><stop stop-opacity="1" stop-color="rgb(0%, 40.79895%, 63.084412%)" offset="0.695313"/><stop stop-opacity="1" stop-color="rgb(0%, 40.79895%, 62.892151%)" offset="0.703125"/><stop stop-opacity="1" stop-color="rgb(0%, 40.605164%, 62.69989%)" offset="0.71875"/><stop stop-opacity="1" stop-color="rgb(0%, 40.405273%, 62.557983%)" offset="0.726563"/><stop stop-opacity="1" stop-color="rgb(0%, 40.19928%, 62.207031%)" offset="0.730469"/><stop stop-opacity="1" stop-color="rgb(0%, 39.99939%, 61.999512%)" offset="0.734375"/><stop stop-opacity="1" stop-color="rgb(0%, 39.993286%, 61.993408%)" offset="0.742188"/><stop stop-opacity="1" stop-color="rgb(0%, 39.793396%, 61.793518%)" offset="0.75"/><stop stop-opacity="1" stop-color="rgb(0%, 39.599609%, 61.407471%)" offset="0.765625"/><stop stop-opacity="1" stop-color="rgb(0%, 39.399719%, 61.00769%)" offset="0.769531"/><stop stop-opacity="1" stop-color="rgb(0%, 39.199829%, 60.798645%)" offset="0.773438"/><stop stop-opacity="1" stop-color="rgb(0%, 39.195251%, 60.798645%)" offset="0.78125"/><stop stop-opacity="1" stop-color="rgb(0%, 38.996887%, 60.798645%)" offset="0.796875"/><stop stop-opacity="1" stop-color="rgb(0%, 38.800049%, 60.606384%)" offset="0.804688"/><stop stop-opacity="1" stop-color="rgb(0%, 38.61084%, 60.218811%)" offset="0.8125"/><stop stop-opacity="1" stop-color="rgb(0%, 38.401794%, 59.802246%)" offset="0.816406"/><stop stop-opacity="1" stop-color="rgb(0%, 38.381958%, 59.58252%)" offset="0.820313"/><stop stop-opacity="1" stop-color="rgb(0%, 38.189697%, 59.388733%)" offset="0.828125"/><stop stop-opacity="1" stop-color="rgb(0%, 37.998962%, 58.999634%)" offset="0.84375"/><stop stop-opacity="1" stop-color="rgb(0%, 37.808228%, 58.80127%)" offset="0.851563"/><stop stop-opacity="1" stop-color="rgb(0%, 37.600708%, 58.599854%)" offset="0.855469"/><stop stop-opacity="1" stop-color="rgb(0%, 37.583923%, 58.399963%)" offset="0.859375"/><stop stop-opacity="1" stop-color="rgb(0%, 37.440491%, 58.39386%)" offset="0.867188"/><stop stop-opacity="1" stop-color="rgb(0%, 37.298584%, 58.192444%)" offset="0.875"/><stop stop-opacity="1" stop-color="rgb(0%, 37.298584%, 57.803345%)" offset="0.890625"/><stop stop-opacity="1" stop-color="rgb(0%, 37.098694%, 57.594299%)" offset="0.894531"/><stop stop-opacity="1" stop-color="rgb(0%, 36.898804%, 57.580566%)" offset="0.898438"/><stop stop-opacity="1" stop-color="rgb(0%, 36.894226%, 57.440186%)" offset="0.90625"/><stop stop-opacity="1" stop-color="rgb(0%, 36.695862%, 57.299805%)" offset="0.921875"/><stop stop-opacity="1" stop-color="rgb(0%, 36.499023%, 57.104492%)" offset="0.9375"/><stop stop-opacity="1" stop-color="rgb(0%, 36.399841%, 56.80542%)" offset="0.96875"/><stop stop-opacity="1" stop-color="rgb(0%, 36.199951%, 56.599426%)" offset="1"/></linearGradient><clipPath id="acaded2c6d"><path d="M 9.730469 20.867188 L 80.457031 20.867188 L 80.457031 112.539062 L 9.730469 112.539062 Z M 9.730469 20.867188 " clip-rule="nonzero"/></clipPath></defs><g clip-path="url(#09d5f5a4d9)"><g clip-path="url(#d41294703f)"><path fill="url(#c7abaaf979)" d="M 7.316406 100.65625 L 77 100.65625 L 77 42.90625 L 7.316406 42.90625 Z M 7.316406 100.65625 " fill-rule="nonzero"/></g></g><g clip-path="url(#acaded2c6d)"><path fill="#ffa41a" d="M 13.984375 20.867188 L 80.457031 20.867188 L 80.457031 112.601562 L 9.730469 112.601562 L 9.730469 84.355469 L 18.238281 87.507812 L 18.238281 104.097656 L 71.945312 104.097656 L 71.945312 29.371094 L 18.238281 29.371094 L 18.238281 58.1875 L 9.730469 62.074219 L 9.730469 20.867188 L 13.984375 20.867188 " fill-opacity="1" fill-rule="nonzero"/></g><path fill="#ffffff" d="M 130.414062 41.300781 L 130.414062 48.445312 C 129.558594 52.363281 127.6875 55.332031 124.816406 57.351562 C 121.9375 59.363281 118.726562 60.363281 115.191406 60.363281 C 110.734375 60.363281 106.9375 58.699219 103.804688 55.367188 C 100.683594 52.039062 99.125 48.011719 99.125 43.285156 C 99.125 38.5 100.652344 34.449219 103.714844 31.144531 C 106.785156 27.839844 110.609375 26.1875 115.191406 26.1875 C 120.539062 26.1875 124.777344 28.070312 127.898438 31.824219 L 122.976562 37.222656 C 121.226562 34.394531 118.777344 32.980469 115.632812 32.980469 C 113.304688 32.980469 111.320312 33.992188 109.683594 36.011719 C 108.054688 38.023438 107.242188 40.445312 107.242188 43.285156 C 107.242188 46.089844 108.054688 48.480469 109.683594 50.464844 C 111.320312 52.449219 113.304688 53.441406 115.632812 53.441406 C 117.542969 53.441406 119.203125 52.867188 120.628906 51.714844 C 122.058594 50.550781 122.777344 49.007812 122.777344 47.085938 L 115.191406 47.085938 L 115.191406 41.300781 Z M 130.414062 41.300781 " fill-opacity="1" fill-rule="nonzero"/><path fill="#ffffff" d="M 151.023438 26.792969 L 164.335938 59.757812 L 156.257812 59.757812 L 153.832031 53.164062 L 141.273438 53.164062 L 138.847656 59.757812 L 130.769531 59.757812 L 144.082031 26.792969 Z M 151.261719 46.570312 L 147.589844 36.984375 L 147.515625 36.984375 L 143.84375 46.570312 Z M 151.261719 46.570312 " fill-opacity="1" fill-rule="nonzero"/><path fill="#ffffff" d="M 166.179688 26.792969 L 177.949219 26.792969 C 181.117188 26.792969 183.703125 27.636719 185.699219 29.328125 C 187.707031 31.015625 188.710938 33.4375 188.710938 36.582031 C 188.710938 39.003906 188.105469 41.039062 186.894531 42.679688 C 185.679688 44.320312 184.03125 45.46875 181.953125 46.128906 L 193.300781 59.757812 L 183.753906 59.757812 L 173.6875 46.738281 L 173.6875 59.757812 L 166.179688 59.757812 Z M 173.6875 41.410156 L 174.570312 41.410156 C 175.253906 41.410156 175.835938 41.402344 176.316406 41.375 C 176.792969 41.351562 177.335938 41.257812 177.949219 41.097656 C 178.574219 40.941406 179.070312 40.714844 179.4375 40.417969 C 179.804688 40.125 180.121094 39.699219 180.390625 39.132812 C 180.65625 38.574219 180.796875 37.894531 180.796875 37.09375 C 180.796875 36.300781 180.65625 35.625 180.390625 35.074219 C 180.121094 34.515625 179.804688 34.082031 179.4375 33.789062 C 179.070312 33.496094 178.574219 33.269531 177.949219 33.109375 C 177.335938 32.953125 176.792969 32.863281 176.316406 32.835938 C 175.835938 32.796875 175.253906 32.78125 174.570312 32.78125 L 173.6875 32.78125 Z M 173.6875 41.410156 " fill-opacity="1" fill-rule="nonzero"/><path fill="#ffffff" d="M 195.34375 26.792969 L 204.894531 26.792969 C 209.472656 26.792969 213.382812 28.363281 216.628906 31.496094 C 219.882812 34.617188 221.515625 38.539062 221.515625 43.246094 C 221.515625 48 219.890625 51.941406 216.648438 55.074219 C 213.414062 58.195312 209.496094 59.757812 204.894531 59.757812 L 195.34375 59.757812 Z M 202.855469 53.035156 L 204.011719 53.035156 C 206.753906 53.035156 208.996094 52.113281 210.734375 50.261719 C 212.484375 48.417969 213.371094 46.089844 213.398438 43.285156 C 213.398438 40.492188 212.519531 38.167969 210.769531 36.304688 C 209.03125 34.433594 206.777344 33.496094 204.011719 33.496094 L 202.855469 33.496094 Z M 202.855469 53.035156 " fill-opacity="1" fill-rule="nonzero"/><path fill="#ffffff" d="M 244.25 26.792969 L 244.25 33.386719 L 232.902344 33.386719 L 232.902344 39.941406 L 243.773438 39.941406 L 243.773438 46.535156 L 232.902344 46.535156 L 232.902344 53.164062 L 244.25 53.164062 L 244.25 59.757812 L 225.390625 59.757812 L 225.390625 26.792969 Z M 244.25 26.792969 " fill-opacity="1" fill-rule="nonzero"/><path fill="#ffffff" d="M 256.636719 39.300781 L 256.636719 59.757812 L 249.125 59.757812 L 249.125 26.792969 L 256.636719 26.792969 L 269.730469 47.25 L 269.820312 47.25 L 269.820312 26.792969 L 277.332031 26.792969 L 277.332031 59.757812 L 269.820312 59.757812 L 256.710938 39.300781 Z M 256.636719 39.300781 " fill-opacity="1" fill-rule="nonzero"/><path fill="#ffffff" d="M 98.515625 78.339844 L 98.515625 71.75 L 121.691406 71.75 L 121.691406 78.339844 L 113.871094 78.339844 L 113.871094 104.710938 L 106.359375 104.710938 L 106.359375 78.339844 Z M 98.515625 78.339844 " fill-opacity="1" fill-rule="nonzero"/><path fill="#ffffff" d="M 123.496094 88.203125 C 123.496094 83.441406 125.117188 79.40625 128.363281 76.101562 C 131.617188 72.796875 135.535156 71.140625 140.117188 71.140625 C 144.730469 71.140625 148.644531 72.789062 151.867188 76.082031 C 155.085938 79.378906 156.699219 83.417969 156.699219 88.203125 C 156.699219 93.027344 155.109375 97.085938 151.941406 100.378906 C 148.769531 103.675781 144.828125 105.316406 140.117188 105.316406 C 135.289062 105.316406 131.308594 103.691406 128.179688 100.433594 C 125.058594 97.164062 123.496094 93.085938 123.496094 88.203125 Z M 131.613281 88.203125 C 131.613281 89.941406 131.875 91.527344 132.402344 92.957031 C 132.941406 94.382812 133.871094 95.585938 135.195312 96.578125 C 136.527344 97.558594 138.167969 98.046875 140.117188 98.046875 C 142.917969 98.046875 145.027344 97.085938 146.453125 95.164062 C 147.882812 93.242188 148.601562 90.921875 148.601562 88.203125 C 148.601562 85.519531 147.871094 83.214844 146.414062 81.277344 C 144.953125 79.347656 142.855469 78.378906 140.117188 78.378906 C 137.398438 78.378906 135.296875 79.347656 133.816406 81.277344 C 132.347656 83.214844 131.613281 85.519531 131.613281 88.203125 Z M 131.613281 88.203125 " fill-opacity="1" fill-rule="nonzero"/><path fill="#ffffff" d="M 159.097656 88.203125 C 159.097656 83.441406 160.71875 79.40625 163.964844 76.101562 C 167.21875 72.796875 171.132812 71.140625 175.714844 71.140625 C 180.332031 71.140625 184.246094 72.789062 187.46875 76.082031 C 190.6875 79.378906 192.300781 83.417969 192.300781 88.203125 C 192.300781 93.027344 190.710938 97.085938 187.542969 100.378906 C 184.371094 103.675781 180.425781 105.316406 175.714844 105.316406 C 170.890625 105.316406 166.910156 103.691406 163.78125 100.433594 C 160.65625 97.164062 159.097656 93.085938 159.097656 88.203125 Z M 167.214844 88.203125 C 167.214844 89.941406 167.476562 91.527344 168.003906 92.957031 C 168.539062 94.382812 169.472656 95.585938 170.792969 96.578125 C 172.125 97.558594 173.769531 98.046875 175.714844 98.046875 C 178.515625 98.046875 180.628906 97.085938 182.050781 95.164062 C 183.484375 93.242188 184.199219 90.921875 184.199219 88.203125 C 184.199219 85.519531 183.46875 83.214844 182.015625 81.277344 C 180.554688 79.347656 178.457031 78.378906 175.714844 78.378906 C 173 78.378906 170.894531 79.347656 169.417969 81.277344 C 167.949219 83.214844 167.214844 85.519531 167.214844 88.203125 Z M 167.214844 88.203125 " fill-opacity="1" fill-rule="nonzero"/><path fill="#ffffff" d="M 203.695312 84.253906 L 203.695312 104.710938 L 196.183594 104.710938 L 196.183594 71.75 L 203.695312 71.75 L 216.789062 92.207031 L 216.878906 92.207031 L 216.878906 71.75 L 224.390625 71.75 L 224.390625 104.710938 L 216.878906 104.710938 L 203.769531 84.253906 Z M 203.695312 84.253906 " fill-opacity="1" fill-rule="nonzero"/></svg>